HIERARCHY
ROOT root
{
	OFFSET 0.000000 0.000000 0.000000
	CHANNELS 6 Xposition Yposition Zposition Zrotation Yrotation Xrotation
	JOINT lhip
	{
		OFFSET 0.058581 -0.082280 -0.017664
		CHANNELS 3 Zrotation Yrotation Xrotation
		JOINT lknee
		{
			OFFSET 0.043451 -0.386469 0.008037
			CHANNELS 3 Zrotation Yrotation Xrotation
			JOINT lankle
			{
				OFFSET -0.014790 -0.426874 -0.037428
				CHANNELS 3 Zrotation Yrotation Xrotation
				JOINT ltoe
				{
					OFFSET 0.041054 -0.060286 0.122042
					CHANNELS 3 Zrotation Yrotation Xrotation
					End Site
					{
						OFFSET 0.000000 0.000000 0.000000
					}
				}
			}
		}
	}
	JOINT rhip
	{
		OFFSET -0.060310 -0.090513 -0.013543
		CHANNELS 3 Zrotation Yrotation Xrotation
		JOINT rknee
		{
			OFFSET -0.043257 -0.383688 -0.004843
			CHANNELS 3 Zrotation Yrotation Xrotation
			JOINT rankle
			{
				OFFSET 0.019056 -0.420046 -0.034562
				CHANNELS 3 Zrotation Yrotation Xrotation
				JOINT rtoe
				{
					OFFSET -0.034840 -0.062106 0.130323
					CHANNELS 3 Zrotation Yrotation Xrotation
					End Site
					{
						OFFSET 0.000000 0.000000 0.000000
					}
				}
			}
		}
	}
	JOINT lowerback
	{
		OFFSET 0.004439 0.124404 -0.038385
		CHANNELS 3 Zrotation Yrotation Xrotation
		JOINT upperback
		{
			OFFSET 0.004488 0.137956 0.026820
			CHANNELS 3 Zrotation Yrotation Xrotation
			JOINT chest
			{
				OFFSET -0.002265 0.056032 0.002855
				CHANNELS 3 Zrotation Yrotation Xrotation
				JOINT lowerneck
				{
					OFFSET -0.013390 0.211636 -0.033468
					CHANNELS 3 Zrotation Yrotation Xrotation
					JOINT upperneck
					{
						OFFSET 0.010113 0.088937 0.050410
						CHANNELS 3 Zrotation Yrotation Xrotation
						End Site
						{
							OFFSET 0.000000 0.000000 0.000000
						}
					}
				}
				JOINT lclavicle
				{
					OFFSET 0.071702 0.114000 -0.018898
					CHANNELS 3 Zrotation Yrotation Xrotation
					JOINT lshoulder
					{
						OFFSET 0.122921 0.045205 -0.019046
						CHANNELS 3 Zrotation Yrotation Xrotation
						JOINT lelbow
						{
							OFFSET 0.255332 -0.015649 -0.022946
							CHANNELS 3 Zrotation Yrotation Xrotation
							JOINT lwrist
							{
								OFFSET 0.265709 0.012698 -0.007375
								CHANNELS 3 Zrotation Yrotation Xrotation
								End Site
								{
									OFFSET 0.000000 0.000000 0.000000
								}
							}
						}
					}
				}
				JOINT rclavicle
				{
					OFFSET -0.082954 0.112472 -0.023707
					CHANNELS 3 Zrotation Yrotation Xrotation
					JOINT rshoulder
					{
						OFFSET -0.113228 0.046853 -0.008472
						CHANNELS 3 Zrotation Yrotation Xrotation
						JOINT relbow
						{
							OFFSET -0.260127 -0.014369 -0.031269
							CHANNELS 3 Zrotation Yrotation Xrotation
							JOINT rwrist
							{
								OFFSET -0.269108 0.006794 -0.006027
								CHANNELS 3 Zrotation Yrotation Xrotation
								End Site
								{
									OFFSET 0.000000 0.000000 0.000000
								}
							}
						}
					}
				}
			}
		}
	}
}
MOTION
Frames: 8
Frame Time: 0.033333
-0.512865 -0.469390 1.029052 63.916886 -4.205391 88.290591 3.371109 13.062375 4.452238 -3.295584 17.209521 17.677560 3.764791 18.100610 -14.634993 0.000000 -0.000000 0.000000 -2.763687 -14.218017 -10.598821 -2.269754 -27.278490 19.802025 0.812474 -23.049855 -12.290076 0.000000 -0.000000 0.000000 1.019945 -3.506112 12.604247 -1.324424 -2.340940 -7.678603 -0.185570 -3.009786 2.710932 -1.998079 9.412003 -6.354283 -3.141667 13.735858 7.426179 -22.648781 8.177785 2.490661 -53.030084 -2.439637 7.791420 -6.716943 -48.278865 27.053009 1.372228 -10.826133 -6.952048 23.921474 -3.684631 -0.803285 50.641208 0.403415 14.451470 -6.083649 34.904705 2.019975 -3.343614 4.453054 -2.228706 
-0.518067 -0.465665 1.028157 69.289096 -3.682737 87.956458 3.667494 13.242967 3.923759 -2.345278 18.995492 17.635351 5.210352 19.619608 -15.034352 0.000000 -0.000000 0.000000 -2.735507 -14.927822 -9.984740 -2.350338 -29.185912 19.486779 0.586952 -24.372871 -12.250405 0.000000 -0.000000 0.000000 0.627525 -3.605435 12.809022 -1.254424 -2.536949 -7.942366 0.141499 -3.101363 2.755566 -1.895985 10.493106 -5.991731 -2.912846 15.824847 7.669453 -22.461114 7.872684 2.991762 -53.159719 -3.144050 7.884190 -8.140229 -49.838697 29.009028 1.102964 -10.935314 -6.599821 24.008116 -3.903253 -0.459096 51.411612 -0.412484 14.519753 -5.850158 34.336298 2.546672 -2.533235 4.717805 -2.203069 
-0.522757 -0.461288 1.027298 74.010300 -2.953450 87.924039 4.237001 13.867137 3.264536 -1.714400 20.454487 17.566014 6.173243 20.357033 -14.472769 0.000000 -0.000000 0.000000 -2.365633 -15.608022 -9.915710 -2.648903 -31.276050 19.511645 0.440939 -25.638702 -11.916441 0.000000 -0.000000 0.000000 0.379843 -3.584920 12.751201 -1.299243 -2.287290 -8.308335 0.452360 -3.156127 2.802405 -1.708580 11.532023 -5.573950 -2.428031 17.577732 7.930698 -22.257874 7.935759 3.084641 -53.186498 -3.536799 8.061287 -10.025157 -51.137942 31.218224 1.198983 -10.978970 -6.520569 24.177150 -4.258651 -0.238309 52.107337 -0.950704 14.698512 -5.197782 33.319108 3.471411 -2.801767 4.464267 -1.396935 
-0.527677 -0.455483 1.027155 77.930044 -1.950138 87.608866 5.203138 13.770127 3.319591 -1.336698 23.238551 17.181451 4.144677 20.503759 -14.216097 0.000000 -0.000000 0.000000 -1.980781 -15.402243 -9.567289 -3.491164 -34.300616 19.937807 0.980810 -25.798065 -11.896513 0.000000 -0.000000 0.000000 0.326645 -3.035906 12.810496 -0.974974 -2.384022 -6.540932 0.743950 -2.769853 0.931408 -2.100058 11.774702 -3.819493 -2.273346 19.243351 6.041881 -23.332907 7.445292 2.389035 -51.465316 -2.274850 9.537934 -11.886601 -53.215415 31.008388 4.145589 -12.777132 -8.222557 24.190638 -3.966159 -0.278551 52.296913 -1.754152 14.987399 -4.111748 32.059542 2.666917 -2.658611 5.969315 3.186093 
-0.531460 -0.446633 1.026015 81.578753 -1.203592 87.495851 5.088432 14.075428 3.303856 -1.495758 22.634479 15.156627 3.577383 20.026698 -15.125230 0.000000 -0.000000 0.000000 -2.242811 -16.257707 -9.601641 -3.787875 -35.306629 20.741104 1.308920 -26.171150 -11.741914 0.000000 -0.000000 0.000000 0.205219 -2.655563 12.808622 -1.005509 -2.168979 -6.422471 0.958030 -2.653166 0.976641 -1.937453 12.454653 -3.539673 -2.088392 20.174293 6.031742 -23.380613 7.609411 2.431066 -51.461764 -2.043295 9.660377 -12.616039 -54.469485 31.293087 4.056145 -12.851422 -8.625436 24.544001 -3.649366 -0.138492 51.999180 -1.922084 15.414078 -3.110416 31.875440 3.870472 -0.841518 5.729091 4.459552 
-0.536793 -0.436223 1.025040 84.852219 -0.210337 87.562177 5.018745 14.008162 3.036264 -1.406194 21.807456 12.903385 2.054366 19.791387 -15.789269 0.000000 -0.000000 0.000000 -2.306605 -16.860730 -9.983838 -4.199311 -36.692352 21.793168 1.621292 -26.671502 -11.193993 0.000000 -0.000000 0.000000 0.408859 -2.414646 13.352154 -1.038822 -1.737198 -6.974013 1.148067 -2.369752 1.024691 -1.749335 12.673474 -3.312754 -2.131681 20.163964 6.154536 -23.390871 8.136919 2.135356 -51.607633 -1.783029 9.774658 -13.296092 -54.775623 31.567972 5.127671 -12.829908 -8.976607 24.499799 -3.665824 -0.121985 52.236526 -1.888010 15.608887 -2.720620 31.464572 4.423473 -1.567761 5.941389 5.413903 
-0.541051 -0.424426 1.024548 87.363558 0.657658 87.507104 5.167579 14.054075 3.947397 -2.061894 20.498507 10.098097 2.189494 18.421506 -16.435487 0.000000 -0.000000 0.000000 -2.691737 -17.530768 -10.175773 -4.491434 -37.215330 22.866097 2.254214 -26.630559 -10.317959 0.000000 -0.000000 0.000000 0.533410 -1.944821 13.600623 -1.079516 -1.015065 -6.821361 1.368218 -2.091571 0.988317 -1.622021 12.675208 -3.155443 -2.433400 20.510360 5.605218 -23.571275 8.679139 1.964717 -51.939819 -1.505829 9.586960 -13.135032 -54.762787 31.160739 5.161876 -12.928769 -9.136446 24.507371 -3.710059 -0.226178 52.123431 -1.823983 15.601985 -2.363699 31.828976 4.544222 -0.993981 5.983234 6.037867 
-0.544828 -0.410698 1.024656 90.176677 1.230890 87.653172 5.314825 13.825090 4.061966 -3.234409 17.600106 8.459156 2.303324 17.478116 -16.540843 0.000000 -0.000000 0.000000 -3.507278 -17.975941 -10.787729 -5.211616 -37.384839 24.547052 2.789594 -26.859434 -9.019215 0.000000 -0.000000 0.000000 0.401863 -1.654660 13.367813 -0.981893 -0.434755 -6.463360 1.448775 -1.947474 1.231727 -1.068811 12.612188 -3.541651 -2.785999 20.165867 6.335697 -24.160121 9.284802 1.778593 -52.067551 -1.568497 9.438857 -11.917587 -53.901565 29.627220 5.368160 -12.753968 -9.225425 25.060252 -3.860876 -0.371364 51.917480 -1.364456 15.632447 -2.931824 31.800921 3.025298 -1.831746 6.376305 5.962145 
